<?xml version="1.0" encoding="UTF-8" standalone="no"?><!DOCTYPE svg PUBLIC "-//W3C//DTD SVG 1.1//EN" "http://www.w3.org/Graphics/SVG/1.1/DTD/svg11.dtd"><svg width="100%" height="100%" viewBox="0 0 193 193" version="1.1" xmlns="http://www.w3.org/2000/svg" xmlns:xlink="http://www.w3.org/1999/xlink" xml:space="preserve" xmlns:serif="http://www.serif.com/" style="fill-rule:evenodd;clip-rule:evenodd;stroke-linejoin:round;stroke-miterlimit:2;"><path d="M192.878,48.219l-0,96.489c-0,26.613 -21.607,48.219 -48.22,48.219l-96.439,0c-26.613,0 -48.219,-21.606 -48.219,-48.219l-0,-96.489c-0,-26.613 21.606,-48.219 48.219,-48.219l96.439,0c26.613,0 48.22,21.606 48.22,48.219Z" style="fill:url(#_Linear1);"/><rect id="Artboard1" x="0" y="0" width="192.878" height="192.927" style="fill:none;"/><path d="M80.994,18.103c-13.899,2.799 -25.757,8.634 -36.891,18.156c-4.782,4.088 -10.505,10.367 -10.505,11.524c0,0.959 2.726,7.503 3.126,7.504c0.186,-0 1.348,-1.323 2.586,-2.942c3.342,-4.377 10.901,-11.658 15.408,-14.844c5.799,-4.1 16.84,-9.259 23.867,-11.152c5.623,-1.515 7.094,-1.651 17.898,-1.651c10.79,-0 12.28,0.137 17.866,1.643c7.305,1.969 17.263,6.61 23.634,11.014c4.76,3.29 15.398,13.828 17.427,17.265c0.624,1.055 1.381,1.837 1.681,1.736c0.303,-0.1 1.214,-1.819 2.028,-3.819c1.202,-2.951 1.336,-3.822 0.719,-4.624c-9.722,-12.628 -23.253,-22.292 -38.263,-27.33c-11.334,-3.804 -28.726,-4.868 -40.581,-2.48m-55.969,42.916c-5.709,11.728 -8.147,22.359 -8.152,35.542c-0.005,13.021 2.556,23.846 8.404,35.526c13.466,26.901 41.146,44.007 71.206,44.007c20.715,-0 40.063,-7.823 55.038,-22.254c16.113,-15.526 24.58,-35.259 24.572,-57.279c-0.004,-8.976 -1.199,-16.927 -3.717,-24.701c-1.983,-6.121 -6.099,-14.878 -7.123,-15.152c-0.341,-0.09 -5.898,13.07 -12.35,29.245c-6.451,16.177 -11.831,29.311 -11.955,29.185c-0.125,-0.124 -4.785,-11.62 -10.357,-25.546l-10.13,-25.32l-11.897,-0.355l0,64.479l9.484,-0l-0.352,-24.61c-0.192,-13.534 -0.141,-24.198 0.114,-23.697c0.255,0.501 4.761,11.585 10.013,24.632l9.551,23.72l3.665,-0.178l3.665,-0.178l7.635,-18.896c4.199,-10.393 8.956,-22.103 10.569,-26.022l2.934,-7.123l1.11,4.646c0.611,2.555 1.287,7.906 1.502,11.891c1.124,20.742 -6.357,40.159 -21.086,54.735c-18.163,17.974 -43.315,25.111 -67.695,19.207c-13.456,-3.258 -24.452,-9.563 -34.614,-19.847c-9.378,-9.493 -15.179,-19.711 -18.709,-32.956c-1.44,-5.406 -1.624,-7.282 -1.666,-16.922c-0.039,-9.389 0.147,-11.616 1.397,-16.615c0.795,-3.175 1.561,-5.657 1.702,-5.515c0.143,0.142 5.111,12.219 11.042,26.839l10.784,26.578l3.632,0.182l3.631,0.181l5.221,-12.883c2.872,-7.084 7.389,-18.178 10.04,-24.652l4.819,-11.773l-0.402,24.627l-0.402,24.629l9.493,-0l-0,-64.434l-11.651,-0l-10.128,25.393c-5.571,13.967 -10.278,25.397 -10.461,25.402c-0.184,0.005 -5.759,-13.508 -12.392,-30.028c-6.632,-16.52 -12.246,-30.042 -12.474,-30.049c-0.23,-0.007 -1.809,2.846 -3.51,6.339" style="fill:#fff;"/><defs><linearGradient id="_Linear1" x1="0" y1="0" x2="1" y2="0" gradientUnits="userSpaceOnUse" gradientTransform="matrix(192.878,0,0,192.878,0,96.4635)"><stop offset="0" style="stop-color:#7759ff;stop-opacity:1"/><stop offset="1" style="stop-color:#9c16ff;stop-opacity:1"/></linearGradient></defs></svg>