<?xml version="1.0" encoding="UTF-8" standalone="no"?><!DOCTYPE svg PUBLIC "-//W3C//DTD SVG 1.1//EN" "http://www.w3.org/Graphics/SVG/1.1/DTD/svg11.dtd"><svg width="100%" height="100%" viewBox="0 0 138 138" version="1.1" xmlns="http://www.w3.org/2000/svg" xmlns:xlink="http://www.w3.org/1999/xlink" xml:space="preserve" xmlns:serif="http://www.serif.com/" style="fill-rule:evenodd;clip-rule:evenodd;stroke-linejoin:round;stroke-miterlimit:2;"><rect id="Artboard1" x="0" y="0" width="137.322" height="137.357" style="fill:none;"/><clipPath id="_clip1"><rect x="0" y="0" width="137.322" height="137.357"/></clipPath><g clip-path="url(#_clip1)"><path d="M55.346,1.095c-11.987,2.414 -22.214,7.447 -31.817,15.659c-4.124,3.526 -9.06,8.941 -9.06,9.939c0,0.827 2.351,6.471 2.696,6.472c0.16,0 1.163,-1.141 2.23,-2.537c2.883,-3.775 9.402,-10.055 13.289,-12.803c5.002,-3.536 14.524,-7.985 20.585,-9.618c4.849,-1.307 6.118,-1.424 15.436,-1.424c9.306,0 10.591,0.118 15.409,1.417c6.3,1.698 14.889,5.701 20.384,9.499c4.105,2.838 13.28,11.927 15.03,14.891c0.538,0.91 1.191,1.584 1.45,1.497c0.261,-0.086 1.047,-1.569 1.749,-3.294c1.036,-2.545 1.152,-3.296 0.62,-3.988c-8.385,-10.891 -20.055,-19.226 -33.001,-23.571c-9.775,-3.281 -24.775,-4.198 -35,-2.139m-48.271,37.014c-4.924,10.115 -7.027,19.284 -7.031,30.654c-0.004,11.23 2.205,20.566 7.248,30.64c11.614,23.201 35.487,37.954 61.413,37.954c17.866,0 34.553,-6.747 47.469,-19.193c13.897,-13.391 21.199,-30.41 21.192,-49.401c-0.003,-7.742 -1.034,-14.599 -3.206,-21.304c-1.71,-5.279 -5.26,-12.832 -6.143,-13.068c-0.294,-0.078 -5.087,11.272 -10.651,25.223c-5.564,13.952 -10.204,25.279 -10.311,25.171c-0.108,-0.107 -4.127,-10.022 -8.933,-22.033l-8.737,-21.838l-10.26,-0.306l0,55.611l8.179,0l-0.303,-21.225c-0.166,-11.673 -0.122,-20.87 0.098,-20.438c0.22,0.432 4.106,9.992 8.636,21.244l8.237,20.458l3.161,-0.153l3.161,-0.154l6.585,-16.297c3.622,-8.964 7.724,-19.063 9.116,-22.443l2.53,-6.144l0.957,4.007c0.527,2.204 1.11,6.819 1.296,10.256c0.969,17.889 -5.483,34.636 -18.186,47.207c-15.665,15.502 -37.358,21.658 -58.385,16.566c-11.605,-2.81 -21.089,-8.248 -29.853,-17.118c-8.089,-8.187 -13.092,-17 -16.136,-28.423c-1.242,-4.663 -1.401,-6.281 -1.437,-14.595c-0.034,-8.098 0.127,-10.018 1.205,-14.33c0.685,-2.738 1.346,-4.879 1.468,-4.756c0.123,0.122 4.408,10.538 9.523,23.147l9.301,22.923l3.132,0.157l3.132,0.156l4.503,-11.111c2.477,-6.11 6.373,-15.678 8.659,-21.262l4.156,-10.153l-0.346,21.24l-0.347,21.241l8.187,0l0,-55.572l-10.048,0l-8.735,21.901c-4.805,12.046 -8.865,21.904 -9.023,21.908c-0.158,0.004 -4.967,-11.65 -10.687,-25.898c-5.72,-14.248 -10.562,-25.91 -10.759,-25.916c-0.198,-0.006 -1.56,2.454 -3.027,5.467" style="fill:#fff;"/></g></svg>