<?xml version="1.0" encoding="UTF-8" standalone="no"?><!DOCTYPE svg PUBLIC "-//W3C//DTD SVG 1.1//EN" "http://www.w3.org/Graphics/SVG/1.1/DTD/svg11.dtd"><svg width="100%" height="100%" viewBox="0 0 1026 138" version="1.1" xmlns="http://www.w3.org/2000/svg" xmlns:xlink="http://www.w3.org/1999/xlink" xml:space="preserve" xmlns:serif="http://www.serif.com/" style="fill-rule:evenodd;clip-rule:evenodd;stroke-linejoin:round;stroke-miterlimit:2;"><rect id="Artboard1" x="0" y="0" width="1025.88" height="137.357" style="fill:none;"/><clipPath id="_clip1"><rect x="0" y="0" width="1025.88" height="137.357"/></clipPath><g clip-path="url(#_clip1)"><g id="transformGroup"><g id="svgContainer"><path d="M786.346,1.095c-11.987,2.414 -22.214,7.447 -31.817,15.659c-4.124,3.526 -9.06,8.941 -9.06,9.939c-0,0.827 2.351,6.471 2.696,6.472c0.16,0 1.163,-1.141 2.23,-2.537c2.883,-3.775 9.402,-10.055 13.289,-12.803c5.002,-3.536 14.524,-7.985 20.585,-9.618c4.849,-1.307 6.118,-1.424 15.436,-1.424c9.306,0 10.591,0.118 15.409,1.417c6.3,1.698 14.889,5.701 20.384,9.499c4.105,2.838 13.28,11.927 15.03,14.891c0.538,0.91 1.191,1.584 1.45,1.497c0.261,-0.086 1.047,-1.569 1.749,-3.294c1.036,-2.545 1.152,-3.296 0.62,-3.988c-8.385,-10.891 -20.055,-19.226 -33.001,-23.571c-9.775,-3.281 -24.775,-4.198 -35,-2.139m-406.903,65.735l-0,58.243l2.671,0l0,-116.487l-2.671,0l-0,58.244m358.632,-28.721c-4.924,10.115 -7.027,19.284 -7.031,30.654c-0.004,11.23 2.205,20.566 7.248,30.64c11.614,23.201 35.487,37.954 61.413,37.954c17.866,-0 34.553,-6.747 47.469,-19.193c13.897,-13.391 21.199,-30.41 21.192,-49.401c-0.003,-7.742 -1.034,-14.599 -3.206,-21.304c-1.71,-5.279 -5.26,-12.832 -6.143,-13.068c-0.294,-0.078 -5.087,11.272 -10.651,25.223c-5.564,13.952 -10.204,25.279 -10.311,25.171c-0.108,-0.107 -4.127,-10.022 -8.933,-22.033l-8.737,-21.838l-10.26,-0.306l-0,55.611l8.179,-0l-0.303,-21.225c-0.166,-11.673 -0.122,-20.87 0.098,-20.438c0.22,0.432 4.106,9.992 8.636,21.244l8.237,20.458l3.161,-0.153l3.161,-0.154l6.585,-16.297c3.622,-8.964 7.724,-19.063 9.116,-22.443l2.53,-6.144l0.957,4.007c0.527,2.204 1.11,6.819 1.296,10.256c0.969,17.889 -5.483,34.636 -18.186,47.207c-15.665,15.502 -37.358,21.658 -58.385,16.566c-11.605,-2.81 -21.089,-8.248 -29.853,-17.118c-8.089,-8.187 -13.092,-17 -16.136,-28.423c-1.242,-4.663 -1.401,-6.281 -1.437,-14.595c-0.034,-8.098 0.127,-10.018 1.205,-14.33c0.685,-2.738 1.346,-4.879 1.468,-4.756c0.123,0.122 4.408,10.538 9.523,23.147l9.301,22.923l3.132,0.157l3.132,0.156l4.503,-11.111c2.477,-6.11 6.373,-15.678 8.659,-21.262l4.156,-10.153l-0.346,21.24l-0.347,21.241l8.187,-0l-0,-55.572l-10.048,-0l-8.735,21.901c-4.805,12.046 -8.865,21.904 -9.023,21.908c-0.158,0.004 -4.967,-11.65 -10.687,-25.898c-5.72,-14.248 -10.562,-25.91 -10.759,-25.916c-0.198,-0.006 -1.56,2.454 -3.027,5.467m-533.096,0.455c-5.054,0.722 -11.265,4.074 -15.026,8.108c-5.59,5.995 -7.842,11.853 -7.852,20.425c-0.016,13.474 8.135,24.508 20.544,27.811c3.61,0.961 10.592,0.985 14.09,0.048c9.646,-2.583 17.23,-10.242 19.726,-19.921c1.066,-4.134 1.09,-11.853 0.05,-15.845c-2.817,-10.816 -11.87,-19.146 -22.448,-20.659c-4.225,-0.604 -4.64,-0.602 -9.084,0.033m59.58,-0.226c-6.859,0.802 -13.123,4.994 -15.373,10.285c-1.175,2.765 -1.082,8.869 0.176,11.527c2.383,5.032 7.763,8.314 17.977,10.965c5.618,1.458 9.828,3.49 11.282,5.446c1.439,1.936 1.452,5.825 0.026,7.789c-0.579,0.797 -2.215,2.031 -3.637,2.744c-2.111,1.057 -3.349,1.286 -6.768,1.249c-5.402,-0.058 -8.771,-1.554 -13.58,-6.029c-3.183,-2.96 -3.732,-3.274 -5.211,-2.978c-2.464,0.493 -3.594,1.777 -3.594,4.084c-0,4.201 7.043,9.696 14.749,11.506c5.611,1.318 13.436,0.852 17.594,-1.047c5.942,-2.713 9.275,-7.133 9.739,-12.912c0.537,-6.685 -2.29,-11.834 -8.02,-14.608c-1.351,-0.654 -5.661,-2.154 -9.577,-3.332c-10.818,-3.257 -13.264,-5.122 -13.264,-10.117c-0,-4.186 4.225,-6.91 10.725,-6.917c4.097,-0.004 7.333,1.224 10.621,4.031c3.172,2.708 4.957,3.011 7.226,1.226c1.245,-0.98 1.418,-1.43 1.16,-3.022c-0.947,-5.837 -12.606,-11.019 -22.251,-9.89m55.29,0.172c-10.127,1.392 -18.621,8.79 -21.756,18.946c-1.379,4.466 -1.602,12.76 -0.469,17.389c1.817,7.418 7.737,15.329 13.559,18.117c9.297,4.453 23.517,3.346 30.17,-2.348c2.472,-2.117 3.165,-4.035 2.252,-6.24c-1.121,-2.707 -4.324,-2.887 -7.403,-0.417c-2.786,2.233 -5.988,3.178 -10.775,3.178c-5.876,-0 -9.487,-1.434 -13.354,-5.301c-4.272,-4.271 -5.529,-7.669 -5.551,-15.004c-0.016,-5.004 0.139,-5.945 1.43,-8.701c2.124,-4.53 4.783,-7.476 8.578,-9.499c2.803,-1.494 4.033,-1.813 7.73,-2.007c5.499,-0.289 8.846,0.527 11.68,2.85c3.253,2.665 4.654,2.854 6.62,0.888c1.872,-1.873 2.027,-3.423 0.579,-5.798c-2.74,-4.493 -13.775,-7.361 -23.29,-6.053m-179.526,0.75c-9.055,2.876 -15.679,10.1 -18.155,19.8c-1.037,4.06 -1.047,12.989 -0.02,16.849c2.506,9.42 9.521,16.521 18.75,18.981c4.689,1.25 12.508,1.151 16.792,-0.212c3.913,-1.246 9.414,-4.641 11.461,-7.074c2.3,-2.733 1.638,-5.958 -1.447,-7.052c-1.355,-0.481 -3.483,0.473 -5.876,2.635c-3.491,3.153 -6.34,4.133 -12.153,4.177c-4.491,0.034 -5.454,-0.136 -8.345,-1.473c-5.618,-2.595 -9.651,-7.88 -10.775,-14.119l-0.505,-2.805l19.465,0c19.871,0 20.921,-0.098 22.451,-2.091c0.902,-1.174 0.842,-5.096 -0.133,-8.841c-2.306,-8.854 -8.875,-15.881 -17.272,-18.476c-3.934,-1.216 -10.891,-1.362 -14.238,-0.299m64.022,8.225c-5.496,1.963 -8.964,5.204 -11.553,10.795c-0.917,1.98 -1.118,3.49 -1.142,8.55c-0.027,5.556 0.105,6.432 1.379,9.148c4.533,9.668 14.896,14.035 23.882,10.064c7.71,-3.407 11.652,-10.625 11.218,-20.546c-0.185,-4.218 -0.463,-5.423 -1.95,-8.444c-1.939,-3.937 -5.118,-7.079 -9.062,-8.952c-3.494,-1.661 -9.091,-1.93 -12.772,-0.615m-63.581,0.449c-4.246,1.504 -8.905,6.884 -10.001,11.548l-0.345,1.47l16.307,-0c8.969,-0 16.308,-0.197 16.308,-0.437c0,-0.241 -0.355,-1.634 -0.789,-3.096c-1.071,-3.605 -3.897,-6.742 -7.856,-8.721c-2.836,-1.417 -3.831,-1.633 -7.337,-1.597c-2.23,0.023 -5.06,0.398 -6.287,0.833m-136.144,3.162c-0.697,0.751 -1.93,2.975 -2.743,4.943c-1.228,2.974 -1.514,4.579 -1.703,9.527c-0.258,6.757 0.446,10.077 3.263,15.386c3.503,6.601 12.173,13.106 18.653,13.994c2.174,0.298 2.624,0.176 3.841,-1.041c1.012,-1.012 1.379,-1.934 1.379,-3.468c-0,-2.737 -1.467,-4.541 -4.372,-5.381c-3.726,-1.076 -7.882,-4.24 -10.122,-7.707c-3.538,-5.473 -4.01,-11.897 -1.308,-17.799c1.885,-4.116 1.793,-5.767 -0.443,-8.003c-2.286,-2.286 -4.595,-2.447 -6.445,-0.451" style="fill:#041c34;"/><path d="M24.023,38.527c-3.438,0.53 -8.763,2.564 -11.138,4.255c-1.304,0.929 -1.606,1.526 -1.606,3.183c0,1.7 0.355,2.359 2.139,3.971c1.176,1.063 2.59,1.932 3.142,1.932c0.551,0 2.414,-0.661 4.139,-1.469c2.694,-1.262 3.817,-1.47 7.946,-1.47c4.13,0 5.253,0.208 7.947,1.47c1.725,0.808 3.737,1.469 4.471,1.469c1.622,0 5.483,-3.668 5.483,-5.208c-0,-4.911 -12.992,-9.602 -22.523,-8.133m44.491,0.827c-9.387,2.524 -17.415,10.547 -20.008,19.995c-0.444,1.616 -0.967,4.968 -1.162,7.449c-0.513,6.516 -1.906,9.788 -5.827,13.682c-2.249,2.233 -4.078,3.519 -5.925,4.163c-5.332,1.862 -5.325,1.855 -5.5,5.789c-0.206,4.628 0.556,5.512 4.361,5.062c6.073,-0.72 14.448,-6.416 18.318,-12.459c2.462,-3.845 4.462,-10.082 4.462,-13.916c-0,-6.196 2.659,-12.675 6.543,-15.943c3.427,-2.884 6.79,-4.154 11.625,-4.393c6.329,-0.312 9.781,1.012 14.192,5.443c2.752,2.763 3.426,3.838 4.481,7.142c1.656,5.19 1.355,9.494 -1.001,14.279c-2.922,5.935 -8.135,9.521 -15.117,10.398c-2.959,0.372 -4.085,0.773 -5.149,1.837c-3.09,3.09 -0.518,8.349 4.072,8.328c11.946,-0.056 23.645,-9.14 27.167,-21.098c1.308,-4.442 1.189,-11.723 -0.269,-16.336c-2.894,-9.159 -11.128,-17.014 -20.431,-19.49c-3.645,-0.971 -11.099,-0.936 -14.832,0.068m572.15,1.751c-7.133,2.349 -12.064,8.201 -14.066,16.693c-1.075,4.56 -1.085,17.202 -0.016,21.733c2.925,12.409 12.806,19.238 25.075,17.33c4.859,-0.755 8.677,-2.583 11.525,-5.518c2.498,-2.573 4.694,-6.978 5.155,-10.337l0.332,-2.421l-3.83,0c-2.607,0 -3.891,0.213 -4.019,0.668c-0.105,0.368 -0.456,1.652 -0.781,2.854c-1.758,6.499 -7.842,9.765 -15.34,8.236c-2.737,-0.558 -3.53,-1.024 -5.929,-3.48c-4.036,-4.134 -4.979,-7.529 -4.979,-17.926c-0,-9.273 0.514,-12.185 2.837,-16.059c2.418,-4.03 5.742,-5.993 10.619,-6.268c6.847,-0.387 11.16,2.615 12.957,9.019l0.894,3.186l7.571,-0l-0.339,-2.469c-0.839,-6.122 -5.385,-12.278 -10.912,-14.777c-3.582,-1.62 -12.495,-1.867 -16.754,-0.464m52.109,-0.514c-7.432,1.901 -13.102,8.197 -15.549,17.265c-1.266,4.688 -1.229,16.989 0.065,21.76c2.064,7.611 5.704,12.303 11.935,15.383c3.904,1.929 4.283,2.008 9.45,1.988c4.301,-0.018 6,-0.266 8.454,-1.235c6.078,-2.399 10.959,-8.448 12.99,-16.098c1.27,-4.782 1.292,-17.066 0.039,-21.908c-1.968,-7.609 -6.01,-12.966 -11.933,-15.817c-2.658,-1.279 -3.857,-1.51 -8.442,-1.627c-2.938,-0.075 -6.093,0.055 -7.009,0.289m201.043,0.367c-7.055,2.245 -12.228,8.233 -14.536,16.826c-1.142,4.254 -1.295,16.436 -0.261,20.801c1.856,7.837 5.927,13.319 12.188,16.414c3.903,1.929 4.282,2.008 9.45,1.988c4.301,-0.018 6,-0.266 8.453,-1.235c6.065,-2.394 11.027,-8.539 13.048,-16.158c1.119,-4.219 1.255,-16.349 0.236,-21.047c-1.653,-7.618 -6.029,-13.628 -12.08,-16.588c-2.788,-1.364 -3.87,-1.579 -8.542,-1.696c-3.688,-0.092 -6.16,0.124 -7.956,0.695m105.106,-0.104c-4.51,1.466 -9.036,5.318 -10.567,8.993c-1.333,3.201 -1.081,8.25 0.58,11.583c2.266,4.547 5.733,6.69 17.301,10.69c8.641,2.989 10.923,4.468 11.776,7.633c1.972,7.324 -5.098,12.412 -14.761,10.626c-5.362,-0.991 -8.913,-4.206 -9.657,-8.743l-0.333,-2.026l-3.802,0.156l-3.802,0.155l0.171,2.138c0.406,5.088 4.126,10.017 9.492,12.577c9.001,4.297 21.36,2.953 27.088,-2.945c2.792,-2.875 3.755,-5.778 3.512,-10.587c-0.389,-7.709 -4.816,-11.954 -16.293,-15.624c-7.78,-2.487 -10.854,-3.977 -12.679,-6.146c-2.966,-3.525 -1.557,-9.441 2.744,-11.524c2.505,-1.213 8.221,-1.593 11.339,-0.753c2.677,0.721 6.195,3.866 6.618,5.916c0.963,4.664 0.499,4.238 4.621,4.238l3.73,0l0,-2.051c0,-2.721 -2.727,-8.104 -5.21,-10.284c-1.075,-0.945 -3.288,-2.335 -4.918,-3.092c-2.525,-1.171 -3.833,-1.395 -8.841,-1.515c-3.86,-0.092 -6.644,0.108 -8.109,0.585m-581.541,27.579l0,27.786l10.372,-0c8.659,-0 10.907,-0.167 13.607,-1.007c8.382,-2.609 13.748,-8.469 15.826,-17.284c1.026,-4.352 1.022,-14.12 -0.007,-18.486c-2.303,-9.771 -9.061,-16.485 -18.366,-18.25c-1.581,-0.3 -7.051,-0.545 -12.153,-0.545l-9.279,-0l0,27.786m66.793,-27.621c0,0.117 -4.594,12.211 -10.209,26.875c-5.615,14.664 -10.332,27.082 -10.482,27.597c-0.243,0.831 0.17,0.935 3.723,0.935l3.996,-0l2.386,-6.543l2.386,-6.544l2.096,-0.372c2.668,-0.474 15.761,-0.47 18.929,0.006l2.404,0.361l4.809,13.07l8.129,0.022l-21.123,-55.305l-3.522,-0.158c-1.937,-0.087 -3.522,-0.062 -3.522,0.056m25.649,3.041l-0,3.206l17.633,-0l0,49.16l8.015,-0l0,-49.16l17.634,-0l-0,-6.412l-43.282,-0l-0,3.206m62.592,-0.401c-2.988,7.489 -19.845,51.935 -19.845,52.323c0,0.244 1.766,0.444 3.924,0.444l3.923,-0l4.711,-13.082l2.137,-0.375c2.713,-0.476 15.795,-0.473 18.968,0.004l2.403,0.361l4.698,13.092l3.931,-0c2.162,-0 3.931,-0.191 3.931,-0.424c-0,-0.232 -4.049,-10.993 -8.997,-23.911c-4.948,-12.919 -9.658,-25.233 -10.467,-27.363l-1.469,-3.874l-6.729,-0l-1.119,2.805m361.143,24.981l0,27.786l8.003,-0l0.14,-20.548l0.14,-20.547l13.358,20.533l13.359,20.533l7.748,0.029l-0,-55.572l-7.469,-0l-0.139,20.884l-0.14,20.884l-13.611,-20.884l-13.61,-20.884l-7.779,-0l0,27.786m-238.05,-21.431c-4.439,1.142 -8.016,4.569 -9.887,9.472c-0.915,2.394 -1.264,4.681 -1.47,9.607c-0.33,7.905 0.434,12.747 2.674,16.95c2.973,5.578 6.973,7.7 13.519,7.175c5.742,-0.461 9.901,-4.145 11.876,-10.518c1.302,-4.201 1.306,-17.762 0.007,-21.953c-1.342,-4.328 -3.715,-7.593 -6.691,-9.202c-2.755,-1.49 -7.42,-2.202 -10.028,-1.531m201.537,0.263c-3.133,0.873 -4.884,2.117 -7.165,5.089c-2.813,3.666 -3.603,7.183 -3.607,16.079c-0.005,8.922 0.831,12.641 3.742,16.653c4.404,6.069 14.079,7.148 19.574,2.183c4.449,-4.019 6.028,-9.715 5.665,-20.439c-0.26,-7.672 -1.05,-10.795 -3.77,-14.905c-2.634,-3.981 -9.235,-6.111 -14.439,-4.66m-471.649,21.157l0,21.495l6.546,-0.21c5.806,-0.185 6.853,-0.369 9.266,-1.623c5.296,-2.755 7.933,-7.195 8.896,-14.976c0.693,-5.598 -0.02,-12.727 -1.652,-16.522c-1.51,-3.511 -4.422,-6.52 -7.697,-7.952c-2.236,-0.978 -4.07,-1.274 -9.08,-1.466l-6.279,-0.241l0,21.495m57.831,-5.382c-2.417,6.696 -4.396,12.283 -4.396,12.415c-0,0.132 4.04,0.247 8.979,0.256l8.978,0.017l-4.482,-12.331c-2.464,-6.782 -4.526,-12.376 -4.581,-12.431c-0.055,-0.056 -2.08,5.378 -4.498,12.074m89.223,-0.093c-2.421,6.691 -4.398,12.298 -4.393,12.461c0.015,0.463 17.643,0.38 17.643,-0.082c-0,-0.321 -3.739,-10.706 -8.498,-23.601c-0.229,-0.618 -1.866,3.247 -4.752,11.222" style="fill:#049ce4;"/></g></g></g></svg>